<svg xmlns="http://www.w3.org/2000/svg" xmlns:xlink="http://www.w3.org/1999/xlink" width="2000" zoomAndPan="magnify" viewBox="0 0 1500 1499.999933" height="2000" preserveAspectRatio="xMidYMid meet" version="1.0"><path fill="#000000" d="M 764.203125 233.640625 C 743.765625 239.261719 720.953125 261.25 712.003906 283.957031 C 708.484375 292.882812 705.117188 311.238281 703.765625 328.855469 L 702.753906 342.039062 L 698.757812 326.195312 C 696.558594 317.480469 693.445312 308.582031 691.835938 306.417969 C 686.167969 298.796875 679.527344 301.070312 673.339844 312.742188 C 670.972656 317.207031 670.234375 321.21875 670.230469 329.589844 C 670.226562 342.148438 673.015625 351.613281 680.28125 363.679688 L 685.160156 371.78125 L 676.929688 372.761719 C 627.320312 378.660156 569.898438 403.503906 529.558594 436.523438 C 512.453125 450.523438 487.800781 477.183594 476.285156 494.140625 C 458.28125 520.648438 443.425781 553.046875 435.761719 582.507812 C 430.5 602.746094 424.804688 634.503906 424.804688 643.605469 C 424.804688 655.339844 428.046875 657.277344 437.238281 651.039062 C 441.734375 647.988281 442.546875 647.785156 441.597656 649.941406 C 428.613281 679.542969 426.78125 720.5625 438.171875 726.660156 C 440.445312 727.878906 442.25 726.914062 448.503906 721.125 C 453.171875 716.800781 455.648438 715.234375 454.960938 717.039062 C 454.34375 718.652344 452.503906 725.199219 450.871094 731.585938 C 446.886719 747.167969 447.574219 773.535156 452.238281 783.953125 C 455.035156 790.191406 461.132812 795.410156 465.636719 795.410156 C 467.890625 795.410156 476.242188 787.878906 478.980469 783.375 L 481.476562 779.273438 L 486.773438 789.90625 C 489.683594 795.753906 494.527344 803.503906 497.539062 807.128906 C 505.074219 816.210938 519.230469 828.378906 528.441406 833.695312 C 532.671875 836.136719 536.105469 838.570312 536.074219 839.109375 C 536.039062 839.648438 531.261719 843 525.453125 846.554688 C 506.730469 858.023438 486.554688 872.953125 485.5625 876.074219 C 484.414062 879.703125 488.402344 884.765625 492.414062 884.765625 C 497.492188 884.765625 495.125 887.292969 486.359375 891.226562 C 441.65625 911.289062 396.855469 909.164062 384.042969 886.371094 C 382.292969 883.253906 380.859375 878.742188 380.859375 876.339844 C 380.859375 867.925781 390.949219 859.570312 397.121094 862.875 C 398.710938 863.722656 401.578125 867.960938 403.492188 872.292969 C 410.871094 888.972656 429.320312 888.941406 436.707031 872.238281 C 440.457031 863.765625 439.339844 855.394531 433.066406 844.929688 C 419.105469 821.644531 385.351562 813.519531 356.992188 826.625 C 322.417969 842.597656 306.964844 882.671875 320.128906 922.21875 C 331.046875 955.007812 362.671875 983.914062 401.117188 996.234375 C 411.761719 999.644531 411.894531 999.652344 416.5 996.898438 C 445.496094 979.550781 462.714844 976.246094 481.65625 984.394531 C 510.5 996.800781 509.636719 1036.746094 480.355469 1044.578125 C 472.386719 1046.707031 466.804688 1045.550781 462.03125 1040.777344 C 458.050781 1036.796875 457.558594 1033.09375 460.476562 1029.097656 C 462.339844 1026.550781 462.667969 1026.535156 465.933594 1028.816406 C 479.535156 1038.347656 493.546875 1016.617188 482.367188 1003.332031 C 468.203125 986.496094 433.683594 995.097656 417.210938 1019.570312 C 400.515625 1044.378906 405.070312 1077.707031 428.339844 1100.972656 C 448.203125 1120.839844 480.640625 1129.414062 511.164062 1122.871094 C 521.457031 1120.664062 524.414062 1118.101562 524.414062 1111.382812 C 524.414062 1105.898438 528.386719 1090.542969 531.296875 1084.78125 C 536.210938 1075.046875 545.96875 1064.394531 558.679688 1054.878906 C 571.222656 1045.492188 594.726562 1022.363281 594.726562 1019.410156 C 594.726562 1018.671875 595.246094 1018.066406 595.878906 1018.066406 C 596.511719 1018.066406 596.558594 1023.503906 595.980469 1030.152344 C 594.695312 1044.867188 596.222656 1058.296875 600.675781 1071.480469 C 603.679688 1080.363281 603.839844 1082.113281 602.21875 1088.167969 C 601.226562 1091.886719 599.296875 1096.164062 597.9375 1097.664062 C 594.410156 1101.5625 587.71875 1104.746094 584.160156 1104.214844 C 581.570312 1103.828125 581.964844 1103.214844 586.820312 1100.085938 C 597.597656 1093.144531 598.570312 1078.457031 588.796875 1070.234375 C 573.097656 1057.023438 548.1875 1071.542969 541.324219 1097.898438 C 538.472656 1108.832031 538.476562 1114.8125 541.335938 1125.789062 C 545.996094 1143.683594 558.6875 1158.15625 577.878906 1167.457031 C 593.148438 1174.855469 604.199219 1176.902344 623.003906 1175.824219 C 654.195312 1174.03125 679.1875 1161.15625 705.460938 1133.335938 C 725.105469 1112.542969 737.976562 1088.777344 746.027344 1058.449219 L 749.460938 1045.527344 L 752.707031 1057.796875 C 767.609375 1114.066406 805.570312 1156.878906 854.054688 1172.101562 C 868.667969 1176.691406 898.617188 1177.054688 911.132812 1172.792969 C 932.058594 1165.671875 948.53125 1152.113281 956.238281 1135.664062 C 959.679688 1128.320312 960.203125 1125.347656 960.203125 1113.28125 C 960.203125 1101.039062 959.699219 1098.265625 955.984375 1090.234375 C 953.425781 1084.6875 949.039062 1078.546875 944.820312 1074.601562 C 932.34375 1062.933594 919.519531 1062.066406 909.375 1072.214844 C 904.84375 1076.742188 903.808594 1078.835938 903.8125 1083.445312 C 903.820312 1090.625 908.542969 1098.460938 914.132812 1100.574219 C 920.179688 1102.855469 919.53125 1105.050781 913.121094 1104.007812 C 903.902344 1102.511719 896.484375 1093.175781 896.484375 1083.066406 C 896.484375 1080.066406 898.210938 1072.621094 900.320312 1066.515625 C 903.902344 1056.15625 904.113281 1054.105469 903.492188 1035.699219 C 903 1021.109375 903.242188 1016.683594 904.417969 1018.679688 C 907.671875 1024.203125 921.355469 1039.527344 927.445312 1044.457031 C 930.910156 1047.261719 938.28125 1052.949219 943.828125 1057.09375 C 964 1072.160156 973.019531 1087.835938 976.320312 1113.546875 L 977.199219 1120.402344 L 987.300781 1122.699219 C 1019.148438 1129.945312 1051.960938 1120.714844 1072.765625 1098.664062 C 1092.785156 1077.441406 1098.152344 1051.144531 1087.230469 1027.804688 C 1076.945312 1005.828125 1051.683594 991.292969 1030.628906 995.242188 C 1023.832031 996.519531 1015.585938 1003.753906 1013.875 1009.949219 C 1010.148438 1023.453125 1022.257812 1035.460938 1033.128906 1029.039062 C 1037.414062 1026.507812 1037.628906 1026.511719 1039.601562 1029.203125 C 1043.875 1035.042969 1038.371094 1043.515625 1029.183594 1045.238281 C 1016.300781 1047.652344 1000.988281 1036.75 997.632812 1022.769531 C 991.574219 997.519531 1016.792969 975.789062 1045.898438 981.183594 C 1057.242188 983.285156 1068.765625 987.855469 1077.886719 993.867188 C 1082.1875 996.703125 1087.128906 999.011719 1088.871094 998.996094 C 1093.496094 998.960938 1114.011719 990.34375 1127.351562 982.828125 C 1143.289062 973.855469 1166.277344 950.976562 1173.628906 936.765625 C 1181.535156 921.492188 1184.15625 911.117188 1184.179688 895.019531 C 1184.207031 877.84375 1180.320312 864.070312 1171.882812 851.433594 C 1148.882812 816.992188 1098.96875 809.5625 1072.710938 836.667969 C 1061.21875 848.53125 1058.050781 860.8125 1063.421875 872.648438 C 1071.007812 889.355469 1091.714844 888.3125 1097.242188 870.945312 C 1099.898438 862.609375 1103.207031 860.726562 1110.113281 863.632812 C 1113.277344 864.964844 1115.605469 867.421875 1117.113281 871.027344 C 1119.160156 875.929688 1119.144531 877.003906 1116.953125 882.75 C 1107.082031 908.59375 1061.417969 912.230469 1013.304688 891.007812 C 1004.039062 886.921875 1003.066406 885.539062 1008.503906 884.175781 C 1013.25 882.984375 1015.75 878.394531 1013.71875 874.601562 C 1012.304688 871.957031 990.207031 856.757812 970.867188 845.128906 C 966.257812 842.355469 962.464844 839.636719 962.441406 839.085938 C 962.421875 838.539062 963.699219 837.675781 965.285156 837.171875 C 969.226562 835.921875 985.171875 824.21875 992.980469 816.84375 C 1000.820312 809.441406 1013.054688 791.222656 1015.363281 783.511719 C 1016.300781 780.386719 1017.457031 777.839844 1017.929688 777.847656 C 1018.410156 777.859375 1020.085938 780.550781 1021.660156 783.835938 C 1027.207031 795.40625 1034.957031 798.265625 1042.832031 791.636719 C 1053.75 782.449219 1056.058594 748.753906 1047.445312 724.25 C 1044.265625 715.199219 1044.011719 715.210938 1054.390625 723.976562 C 1060.292969 728.964844 1064.007812 727.683594 1067.441406 719.488281 C 1071.011719 710.957031 1069.308594 681.261719 1064.277344 664.304688 C 1062.125 657.054688 1059.746094 650.496094 1058.992188 649.730469 C 1058.234375 648.964844 1057.617188 647.78125 1057.617188 647.097656 C 1057.617188 646.414062 1060.21875 647.949219 1063.402344 650.503906 C 1074.335938 659.292969 1078.144531 652.652344 1074.636719 630.910156 C 1063.765625 563.570312 1043.09375 514.785156 1007.402344 472.25 C 977.164062 436.214844 929.273438 403.1875 884.335938 387.378906 L 872.917969 383.363281 L 879.011719 379.902344 C 892.628906 372.167969 902.34375 361.78125 902.34375 354.957031 C 902.34375 353.390625 900.519531 350.363281 898.292969 348.230469 C 891.460938 341.679688 883.171875 339.683594 862.386719 339.578125 L 843.671875 339.480469 L 854.332031 332.875 C 883.28125 314.929688 908.203125 288.511719 908.203125 275.769531 C 908.203125 264.582031 895.210938 259.789062 868.652344 261.171875 C 860.191406 261.613281 848.03125 263.351562 841.632812 265.035156 C 817.429688 271.394531 792.136719 287.332031 777.875 305.203125 C 774.292969 309.6875 771.144531 313.136719 770.875 312.867188 C 770.605469 312.597656 772.042969 308.625 774.070312 304.039062 C 780.601562 289.269531 786.851562 267.613281 787.675781 256.898438 C 788.8125 242.136719 787.457031 236.347656 782.234375 233.644531 C 777.195312 231.039062 773.664062 231.039062 764.203125 233.640625 M 598.558594 607.136719 C 585.132812 611.921875 575.582031 627.257812 575.4375 644.257812 C 575.332031 656.507812 577.359375 664.128906 582.929688 672.449219 C 589.148438 681.742188 596.128906 685.980469 606.425781 686.726562 C 621.636719 687.824219 632.417969 681.574219 639.808594 667.367188 C 643.195312 660.863281 643.699219 658.132812 643.746094 645.996094 C 643.792969 633.625 643.355469 631.242188 639.820312 624.539062 C 631.222656 608.234375 614.847656 601.328125 598.558594 607.136719 M 876.539062 608.5 C 850.582031 620.582031 848.511719 665.820312 873.164062 682.136719 C 880.246094 686.824219 893.097656 688.355469 901.648438 685.535156 C 914.628906 681.25 924.152344 666.585938 925.421875 648.925781 C 926.71875 630.894531 919.261719 616.042969 905.378906 609.007812 C 895.324219 603.917969 886.707031 603.765625 876.539062 608.5 M 733.359375 675.328125 C 715.851562 681.527344 705.378906 690.699219 682.796875 719.605469 C 678.109375 725.601562 684.644531 721.304688 698.015625 709.589844 C 721.28125 689.210938 732.136719 683.898438 750.617188 683.855469 C 769.554688 683.8125 782.070312 690.363281 805.5625 712.625 C 813.34375 720 818.292969 723.890625 816.769531 721.433594 C 803.777344 700.496094 789.351562 685.925781 773.789062 678.03125 C 761.507812 671.792969 746.214844 670.773438 733.359375 675.328125 M 725.800781 701.386719 C 722.59375 703.746094 718.152344 707.617188 715.933594 709.984375 L 711.894531 714.292969 L 715.421875 722.992188 C 717.363281 727.773438 720.132812 735.644531 721.578125 740.476562 L 724.207031 749.265625 L 725.410156 740.476562 C 726.074219 735.644531 727.984375 724.617188 729.652344 715.972656 C 731.324219 707.332031 732.449219 699.546875 732.160156 698.675781 C 731.863281 697.785156 729.082031 698.96875 725.800781 701.386719 M 809.898438 738.9375 C 798.207031 742.164062 787.738281 748.882812 775.558594 760.984375 C 765.578125 770.898438 751.597656 788.085938 753.511719 788.085938 C 753.832031 788.085938 758.609375 786.242188 764.128906 783.988281 C 782.882812 776.332031 800.738281 762.476562 813.898438 745.375 C 820.847656 736.34375 820.625 735.984375 809.898438 738.9375 " fill-opacity="1" fill-rule="evenodd"/></svg>